<svg xmlns="http://www.w3.org/2000/svg" viewBox="0 0 220 160" width="220" height="160" fill="none" stroke="currentColor" stroke-width="2" stroke-linecap="round" stroke-linejoin="round">
<circle cx="40" cy="60" r="14"/>
<ellipse cx="40" cy="66" rx="6" ry="8"/>
<path d="M34 54 L37 54 M43 54 L46 54"/>
<path d="M40 74 L40 118"/>
<path d="M40 118 L30 156 M40 118 L50 156"/>
<path d="M40 88 L18 104 M40 88 L58 82"/>
<path d="M78 16 h128 a5 5 0 0 1 5 5 v48 a5 5 0 0 1 -5 5 h-108 l-18 14 v-14 h-2 a5 5 0 0 1 -5 -5 v-48 a5 5 0 0 1 5 -5 z"/>
<text x="144" y="52" text-anchor="middle" fill="currentColor" stroke="none" style="font-family: 'Kalam', cursive; font-weight: 700; font-size: 24px">HELLO!!!</text>
</svg>
